<mxfile host="Electron" agent="Mozilla/5.0 (Windows NT 10.0; Win64; x64) AppleWebKit/537.36 (KHTML, like Gecko) draw.io/24.7.5 Chrome/126.0.6478.183 Electron/31.3.0 Safari/537.36" version="24.7.5">
  <diagram name="PÃ¡gina-1" id="uEeCoGtACgaZs1iiNbPO">
    <mxGraphModel dx="2261" dy="837" grid="1" gridSize="10" guides="1" tooltips="1" connect="1" arrows="1" fold="1" page="1" pageScale="1" pageWidth="827" pageHeight="1169" math="0" shadow="0">
      <root>
        <mxCell id="0" />
        <mxCell id="1" parent="0" />
        <mxCell id="EMvZ7u4iW_sdA96iCC7V-5" value="" style="rounded=0;whiteSpace=wrap;html=1;" parent="1" vertex="1">
          <mxGeometry x="-520" y="40" width="1080" height="840" as="geometry" />
        </mxCell>
        <mxCell id="EMvZ7u4iW_sdA96iCC7V-3" style="edgeStyle=orthogonalEdgeStyle;rounded=0;orthogonalLoop=1;jettySize=auto;html=1;entryX=1;entryY=0.5;entryDx=0;entryDy=0;" parent="1" source="htV6iNqm22kPeJVTop5t-48" target="htV6iNqm22kPeJVTop5t-8" edge="1">
          <mxGeometry relative="1" as="geometry">
            <Array as="points">
              <mxPoint x="460" y="540" />
              <mxPoint x="460" y="400" />
            </Array>
          </mxGeometry>
        </mxCell>
        <mxCell id="htV6iNqm22kPeJVTop5t-48" value="UI" style="rounded=1;whiteSpace=wrap;html=1;labelPosition=center;verticalLabelPosition=top;align=center;verticalAlign=bottom;fontStyle=1;" parent="1" vertex="1">
          <mxGeometry x="120" y="480" width="320" height="120" as="geometry" />
        </mxCell>
        <mxCell id="htV6iNqm22kPeJVTop5t-81" style="edgeStyle=orthogonalEdgeStyle;rounded=0;orthogonalLoop=1;jettySize=auto;html=1;entryX=0;entryY=0.5;entryDx=0;entryDy=0;" parent="1" source="htV6iNqm22kPeJVTop5t-47" target="htV6iNqm22kPeJVTop5t-8" edge="1">
          <mxGeometry relative="1" as="geometry" />
        </mxCell>
        <mxCell id="htV6iNqm22kPeJVTop5t-47" value="Parsing, Scheduling &amp;amp; Executing" style="rounded=1;whiteSpace=wrap;html=1;labelPosition=center;verticalLabelPosition=top;align=center;verticalAlign=bottom;fillColor=none;fontStyle=1" parent="1" vertex="1">
          <mxGeometry x="-260" y="200" width="260" height="400" as="geometry" />
        </mxCell>
        <mxCell id="htV6iNqm22kPeJVTop5t-2" value="" style="shape=image;verticalLabelPosition=bottom;labelBackgroundColor=default;verticalAlign=top;aspect=fixed;imageAspect=0;image=https://alexle.net/wp-content/uploads/2020/02/post-38-5e5b07c3119f4.png;" parent="1" vertex="1">
          <mxGeometry x="340" y="60" width="205.17" height="79.33" as="geometry" />
        </mxCell>
        <mxCell id="htV6iNqm22kPeJVTop5t-3" value="&lt;b&gt;Web Server&lt;/b&gt;&lt;div&gt;Port: 8080 &lt;/div&gt;" style="rounded=1;whiteSpace=wrap;html=1;fillColor=#dae8fc;strokeColor=#6c8ebf;" parent="1" vertex="1">
          <mxGeometry x="160" y="520" width="120" height="40" as="geometry" />
        </mxCell>
        <mxCell id="htV6iNqm22kPeJVTop5t-5" value="&lt;b&gt;Scheduler&lt;/b&gt;" style="rounded=1;whiteSpace=wrap;html=1;fillColor=#dae8fc;strokeColor=#6c8ebf;" parent="1" vertex="1">
          <mxGeometry x="-170" y="440" width="80" height="40" as="geometry" />
        </mxCell>
        <mxCell id="htV6iNqm22kPeJVTop5t-69" style="edgeStyle=orthogonalEdgeStyle;rounded=0;orthogonalLoop=1;jettySize=auto;html=1;entryX=0.5;entryY=0;entryDx=0;entryDy=0;" parent="1" source="htV6iNqm22kPeJVTop5t-6" target="htV6iNqm22kPeJVTop5t-9" edge="1">
          <mxGeometry relative="1" as="geometry" />
        </mxCell>
        <mxCell id="htV6iNqm22kPeJVTop5t-6" value="Worker" style="rounded=1;whiteSpace=wrap;html=1;fillColor=#dae8fc;strokeColor=#6c8ebf;fontStyle=1" parent="1" vertex="1">
          <mxGeometry x="-210" y="240" width="160" height="40" as="geometry" />
        </mxCell>
        <mxCell id="htV6iNqm22kPeJVTop5t-8" value="&lt;b&gt;Metadata DB&lt;/b&gt;&lt;div&gt;(&lt;span style=&quot;background-color: initial;&quot;&gt;PostgreSQL)&lt;/span&gt;&lt;/div&gt;&lt;div&gt;&lt;span style=&quot;background-color: initial;&quot;&gt;Port: 5432&lt;/span&gt;&lt;/div&gt;" style="rounded=1;whiteSpace=wrap;html=1;fillColor=#d5e8d4;strokeColor=#82b366;" parent="1" vertex="1">
          <mxGeometry x="120" y="360" width="320" height="80" as="geometry" />
        </mxCell>
        <mxCell id="htV6iNqm22kPeJVTop5t-9" value="&lt;b&gt;Message Broker&lt;/b&gt;&lt;div&gt;(Redis)&lt;/div&gt;&lt;div&gt;Port:&amp;nbsp;6379 &lt;/div&gt;" style="rounded=1;whiteSpace=wrap;html=1;fillColor=#f8cecc;strokeColor=#b85450;" parent="1" vertex="1">
          <mxGeometry x="-210" y="320" width="160" height="80" as="geometry" />
        </mxCell>
        <mxCell id="htV6iNqm22kPeJVTop5t-66" style="edgeStyle=orthogonalEdgeStyle;rounded=0;orthogonalLoop=1;jettySize=auto;html=1;entryX=0.5;entryY=1;entryDx=0;entryDy=0;startArrow=classic;startFill=1;" parent="1" source="htV6iNqm22kPeJVTop5t-12" target="htV6iNqm22kPeJVTop5t-3" edge="1">
          <mxGeometry relative="1" as="geometry" />
        </mxCell>
        <mxCell id="htV6iNqm22kPeJVTop5t-71" value="Operate" style="edgeLabel;html=1;align=center;verticalAlign=middle;resizable=0;points=[];" parent="htV6iNqm22kPeJVTop5t-66" vertex="1" connectable="0">
          <mxGeometry x="0.1006" y="-1" relative="1" as="geometry">
            <mxPoint x="-1" y="37" as="offset" />
          </mxGeometry>
        </mxCell>
        <mxCell id="EMvZ7u4iW_sdA96iCC7V-2" style="edgeStyle=orthogonalEdgeStyle;rounded=0;orthogonalLoop=1;jettySize=auto;html=1;entryX=0.5;entryY=1;entryDx=0;entryDy=0;" parent="1" source="htV6iNqm22kPeJVTop5t-12" target="htV6iNqm22kPeJVTop5t-24" edge="1">
          <mxGeometry relative="1" as="geometry" />
        </mxCell>
        <mxCell id="EMvZ7u4iW_sdA96iCC7V-6" value="Operate" style="edgeLabel;html=1;align=center;verticalAlign=middle;resizable=0;points=[];" parent="EMvZ7u4iW_sdA96iCC7V-2" vertex="1" connectable="0">
          <mxGeometry x="0.3671" y="2" relative="1" as="geometry">
            <mxPoint x="2" y="11" as="offset" />
          </mxGeometry>
        </mxCell>
        <mxCell id="htV6iNqm22kPeJVTop5t-12" value="Operations User" style="verticalLabelPosition=bottom;html=1;verticalAlign=top;align=center;strokeColor=none;fillColor=#00BEF2;shape=mxgraph.azure.user;fontStyle=1" parent="1" vertex="1">
          <mxGeometry x="196.25" y="700" width="47.5" height="50" as="geometry" />
        </mxCell>
        <mxCell id="htV6iNqm22kPeJVTop5t-55" style="edgeStyle=orthogonalEdgeStyle;rounded=0;orthogonalLoop=1;jettySize=auto;html=1;entryX=0;entryY=0.5;entryDx=0;entryDy=0;" parent="1" source="htV6iNqm22kPeJVTop5t-19" target="htV6iNqm22kPeJVTop5t-23" edge="1">
          <mxGeometry relative="1" as="geometry" />
        </mxCell>
        <mxCell id="htV6iNqm22kPeJVTop5t-56" style="edgeStyle=orthogonalEdgeStyle;rounded=0;orthogonalLoop=1;jettySize=auto;html=1;entryX=0;entryY=0.5;entryDx=0;entryDy=0;" parent="1" source="htV6iNqm22kPeJVTop5t-19" target="htV6iNqm22kPeJVTop5t-5" edge="1">
          <mxGeometry relative="1" as="geometry" />
        </mxCell>
        <mxCell id="htV6iNqm22kPeJVTop5t-60" style="edgeStyle=orthogonalEdgeStyle;rounded=0;orthogonalLoop=1;jettySize=auto;html=1;entryX=0;entryY=0.5;entryDx=0;entryDy=0;" parent="1" source="htV6iNqm22kPeJVTop5t-19" target="htV6iNqm22kPeJVTop5t-6" edge="1">
          <mxGeometry relative="1" as="geometry" />
        </mxCell>
        <mxCell id="htV6iNqm22kPeJVTop5t-19" value="DAG Files" style="rounded=1;whiteSpace=wrap;html=1;fillColor=#fff2cc;strokeColor=#d6b656;fontStyle=1" parent="1" vertex="1">
          <mxGeometry x="-400" y="520" width="120" height="40" as="geometry" />
        </mxCell>
        <mxCell id="htV6iNqm22kPeJVTop5t-23" value="Triggerer" style="rounded=1;whiteSpace=wrap;html=1;fillColor=#dae8fc;strokeColor=#6c8ebf;fontStyle=1" parent="1" vertex="1">
          <mxGeometry x="-170" y="520" width="80" height="40" as="geometry" />
        </mxCell>
        <mxCell id="htV6iNqm22kPeJVTop5t-24" value="CLI" style="rounded=1;whiteSpace=wrap;html=1;fillColor=#dae8fc;strokeColor=#6c8ebf;fontStyle=1" parent="1" vertex="1">
          <mxGeometry x="320" y="520" width="80" height="40" as="geometry" />
        </mxCell>
        <mxCell id="htV6iNqm22kPeJVTop5t-70" style="edgeStyle=orthogonalEdgeStyle;rounded=0;orthogonalLoop=1;jettySize=auto;html=1;entryX=0;entryY=0.5;entryDx=0;entryDy=0;" parent="1" source="htV6iNqm22kPeJVTop5t-25" target="htV6iNqm22kPeJVTop5t-9" edge="1">
          <mxGeometry relative="1" as="geometry" />
        </mxCell>
        <mxCell id="htV6iNqm22kPeJVTop5t-25" value="&lt;b&gt;Celery Flower&lt;/b&gt;&lt;div&gt;Port:&amp;nbsp;5555 &lt;/div&gt;" style="rounded=1;whiteSpace=wrap;html=1;" parent="1" vertex="1">
          <mxGeometry x="-400" y="340" width="116.25" height="40" as="geometry" />
        </mxCell>
        <mxCell id="htV6iNqm22kPeJVTop5t-85" style="edgeStyle=orthogonalEdgeStyle;rounded=0;orthogonalLoop=1;jettySize=auto;html=1;" parent="1" source="htV6iNqm22kPeJVTop5t-26" target="htV6iNqm22kPeJVTop5t-9" edge="1">
          <mxGeometry relative="1" as="geometry" />
        </mxCell>
        <mxCell id="htV6iNqm22kPeJVTop5t-86" style="edgeStyle=orthogonalEdgeStyle;rounded=0;orthogonalLoop=1;jettySize=auto;html=1;entryX=0.5;entryY=0;entryDx=0;entryDy=0;" parent="1" source="htV6iNqm22kPeJVTop5t-26" target="htV6iNqm22kPeJVTop5t-8" edge="1">
          <mxGeometry relative="1" as="geometry" />
        </mxCell>
        <mxCell id="htV6iNqm22kPeJVTop5t-26" value="&lt;b&gt;Init&lt;/b&gt;" style="rounded=1;whiteSpace=wrap;html=1;fillColor=#e1d5e7;strokeColor=#9673a6;" parent="1" vertex="1">
          <mxGeometry x="120" y="280" width="320" height="40" as="geometry" />
        </mxCell>
        <mxCell id="htV6iNqm22kPeJVTop5t-57" style="edgeStyle=orthogonalEdgeStyle;rounded=0;orthogonalLoop=1;jettySize=auto;html=1;entryX=1;entryY=0.5;entryDx=0;entryDy=0;" parent="1" source="htV6iNqm22kPeJVTop5t-34" target="htV6iNqm22kPeJVTop5t-23" edge="1">
          <mxGeometry relative="1" as="geometry">
            <Array as="points">
              <mxPoint x="-20" y="540" />
            </Array>
          </mxGeometry>
        </mxCell>
        <mxCell id="htV6iNqm22kPeJVTop5t-58" style="edgeStyle=orthogonalEdgeStyle;rounded=0;orthogonalLoop=1;jettySize=auto;html=1;entryX=1;entryY=0.5;entryDx=0;entryDy=0;" parent="1" source="htV6iNqm22kPeJVTop5t-34" target="htV6iNqm22kPeJVTop5t-5" edge="1">
          <mxGeometry relative="1" as="geometry">
            <Array as="points">
              <mxPoint x="-20" y="540" />
              <mxPoint x="-40" y="540" />
              <mxPoint x="-40" y="460" />
            </Array>
          </mxGeometry>
        </mxCell>
        <mxCell id="htV6iNqm22kPeJVTop5t-59" style="edgeStyle=orthogonalEdgeStyle;rounded=0;orthogonalLoop=1;jettySize=auto;html=1;entryX=1;entryY=0.5;entryDx=0;entryDy=0;" parent="1" source="htV6iNqm22kPeJVTop5t-34" target="htV6iNqm22kPeJVTop5t-6" edge="1">
          <mxGeometry relative="1" as="geometry" />
        </mxCell>
        <mxCell id="htV6iNqm22kPeJVTop5t-64" style="edgeStyle=orthogonalEdgeStyle;rounded=0;orthogonalLoop=1;jettySize=auto;html=1;entryX=0;entryY=0.5;entryDx=0;entryDy=0;" parent="1" source="htV6iNqm22kPeJVTop5t-34" target="htV6iNqm22kPeJVTop5t-3" edge="1">
          <mxGeometry relative="1" as="geometry" />
        </mxCell>
        <mxCell id="htV6iNqm22kPeJVTop5t-34" value="Plugins Folder" style="rounded=1;whiteSpace=wrap;html=1;fillColor=#fff2cc;strokeColor=#d6b656;fontStyle=1" parent="1" vertex="1">
          <mxGeometry x="-80" y="640" width="120" height="40" as="geometry" />
        </mxCell>
        <mxCell id="htV6iNqm22kPeJVTop5t-74" style="edgeStyle=orthogonalEdgeStyle;rounded=0;orthogonalLoop=1;jettySize=auto;html=1;" parent="1" source="htV6iNqm22kPeJVTop5t-42" target="htV6iNqm22kPeJVTop5t-19" edge="1">
          <mxGeometry relative="1" as="geometry" />
        </mxCell>
        <mxCell id="htV6iNqm22kPeJVTop5t-76" value="Author" style="edgeLabel;html=1;align=center;verticalAlign=middle;resizable=0;points=[];" parent="htV6iNqm22kPeJVTop5t-74" vertex="1" connectable="0">
          <mxGeometry x="-0.2208" relative="1" as="geometry">
            <mxPoint as="offset" />
          </mxGeometry>
        </mxCell>
        <mxCell id="htV6iNqm22kPeJVTop5t-42" value="DAG Author" style="verticalLabelPosition=bottom;html=1;verticalAlign=top;align=center;strokeColor=none;fillColor=#00BEF2;shape=mxgraph.azure.user;fontStyle=1" parent="1" vertex="1">
          <mxGeometry x="-363.75" y="660" width="47.5" height="50" as="geometry" />
        </mxCell>
        <mxCell id="htV6iNqm22kPeJVTop5t-72" style="edgeStyle=orthogonalEdgeStyle;rounded=0;orthogonalLoop=1;jettySize=auto;html=1;entryX=0.5;entryY=1;entryDx=0;entryDy=0;" parent="1" source="htV6iNqm22kPeJVTop5t-43" target="htV6iNqm22kPeJVTop5t-34" edge="1">
          <mxGeometry relative="1" as="geometry" />
        </mxCell>
        <mxCell id="htV6iNqm22kPeJVTop5t-73" value="Install" style="edgeLabel;html=1;align=center;verticalAlign=middle;resizable=0;points=[];" parent="htV6iNqm22kPeJVTop5t-72" vertex="1" connectable="0">
          <mxGeometry x="0.1209" y="-1" relative="1" as="geometry">
            <mxPoint x="-1" y="16" as="offset" />
          </mxGeometry>
        </mxCell>
        <mxCell id="htV6iNqm22kPeJVTop5t-43" value="Deployment Manager" style="verticalLabelPosition=bottom;html=1;verticalAlign=top;align=center;strokeColor=none;fillColor=#00BEF2;shape=mxgraph.azure.user;fontStyle=1" parent="1" vertex="1">
          <mxGeometry x="-43.75" y="780" width="47.5" height="50" as="geometry" />
        </mxCell>
        <mxCell id="htV6iNqm22kPeJVTop5t-79" style="edgeStyle=orthogonalEdgeStyle;rounded=0;orthogonalLoop=1;jettySize=auto;html=1;entryX=0.5;entryY=1;entryDx=0;entryDy=0;" parent="1" source="htV6iNqm22kPeJVTop5t-77" target="htV6iNqm22kPeJVTop5t-9" edge="1">
          <mxGeometry relative="1" as="geometry" />
        </mxCell>
        <mxCell id="htV6iNqm22kPeJVTop5t-77" value="Executor" style="rounded=1;whiteSpace=wrap;html=1;fillColor=#f5f5f5;strokeColor=#666666;fontColor=#333333;" parent="1" vertex="1">
          <mxGeometry x="-170" y="420" width="80" height="20" as="geometry" />
        </mxCell>
        <mxCell id="EMvZ7u4iW_sdA96iCC7V-4" value="&lt;h3 style=&quot;box-sizing: border-box; margin-top: 40px; margin-bottom: 20px; font-family: roboto, sans-serif; line-height: 1.2; color: rgb(112, 112, 112); font-size: 20px; font-style: normal; font-variant-ligatures: normal; font-variant-caps: normal; letter-spacing: normal; orphans: 2; text-indent: 0px; text-transform: none; widows: 2; word-spacing: 0px; -webkit-text-stroke-width: 0px; white-space: normal; background-color: rgb(255, 255, 255); text-decoration-thickness: initial; text-decoration-style: initial; text-decoration-color: initial;&quot;&gt;Distributed Airflow architecture&lt;/h3&gt;" style="text;whiteSpace=wrap;html=1;fontStyle=1;align=center;" parent="1" vertex="1">
          <mxGeometry x="-145" y="29.33" width="330" height="110" as="geometry" />
        </mxCell>
      </root>
    </mxGraphModel>
  </diagram>
</mxfile>
